<?xml version="1.0" encoding="utf-8"?>
<!-- Generator: Adobe Illustrator 18.0.0, SVG Export Plug-In . SVG Version: 6.00 Build 0)  -->
<!DOCTYPE svg PUBLIC "-//W3C//DTD SVG 1.1//EN" "http://www.w3.org/Graphics/SVG/1.1/DTD/svg11.dtd">
<svg version="1.1" id="Capa_1" xmlns="http://www.w3.org/2000/svg" xmlns:xlink="http://www.w3.org/1999/xlink" x="0px" y="0px"
	 viewBox="0 0 900 900" enable-background="new 0 0 900 900" xml:space="preserve">
<path fill="#158FBA" d="M618.1,547.4c0,141.7-114.8,256.5-256.5,256.5S105.1,689,105.1,547.4s114.8-203.8,256.5-203.8
	S618.1,405.7,618.1,547.4z"/>
<path fill="#E8BB2D" d="M324.9,267.6h70.7c19.5,0,35.3-14.2,35.3-31.7v-95c0-17.5-15.8-31.7-35.3-31.7h-70.7
	c-19.5,0-35.3,14.2-35.3,31.7v95C289.5,253.4,305.4,267.6,324.9,267.6L324.9,267.6z M324.9,267.6"/>
<path fill="#E8BB2D" d="M607.5,362.6c0-88.2-57.9-164.3-141.3-200v73.3c0,34.9-31.7,63.3-70.7,63.3h-70.7c-39,0-70.7-28.4-70.7-63.3
	v-73.3c-83.4,35.7-141.3,111.8-141.3,200c-19.5,0-35.3,14.2-35.3,31.7V426c0,17.5,15.8,31.7,35.3,31.7h494.6
	c19.5,0,35.3-14.2,35.3-31.7v-31.7C642.8,376.8,627,362.6,607.5,362.6L607.5,362.6z M607.5,362.6"/>
<path fill="#158FBA" d="M645,508.9c0-7.5,6.2-13.7,13.7-13.7c7.5,0,13.7,6.2,13.7,13.7v21.7h11.6c6.5,0,11.6,5.2,11.6,11.6
	c0,6.5-5.2,11.6-11.6,11.6h-11.6v62.6c0,6,5.2,9.3,9.8,9.3c6.7,0,12.2,5.4,12.2,12.2s-5.4,12.2-12.2,12.2c-23,0-37.3-14.7-37.3-35.2
	v-61h-6c-6.5,0-11.6-5.2-11.6-11.6c0-6.5,5.2-11.6,11.6-11.6h6V508.9z"/>
<path fill="#158FBA" d="M713.8,498.3c0-11.9,6-17.1,16.6-17.1c10.9,0,16.8,5.2,16.8,17.1c0,10.1-6,16.3-16.8,16.3
	C719.8,514.6,713.8,508.4,713.8,498.3z M744.3,636.2c0,7.8-6.2,14-14,14c-7.8,0-14-6.2-14-14v-93.6c0-7.8,6.2-14,14-14
	c7.8,0,14,6.2,14,14V636.2z"/>
<path fill="#158FBA" d="M779.3,508.9c0-7.5,6.2-13.7,13.7-13.7c7.5,0,13.7,6.2,13.7,13.7v21.7h11.6c6.5,0,11.6,5.2,11.6,11.6
	c0,6.5-5.2,11.6-11.6,11.6h-11.6v62.6c0,6,5.2,9.3,9.8,9.3c6.7,0,12.2,5.4,12.2,12.2s-5.4,12.2-12.2,12.2c-23,0-37.3-14.7-37.3-35.2
	v-61h-6c-6.5,0-11.6-5.2-11.6-11.6c0-6.5,5.2-11.6,11.6-11.6h6V508.9z"/>
<path fill="#158FBA" d="M629.7,722.1c0-4.9,2.6-7.3,7.2-7.3c4.6,0,7.1,2.4,7.1,7.3c0,4.8-2.5,7.1-7.1,7.1
	C632.4,729.2,629.7,726.9,629.7,722.1z"/>
<path fill="#158FBA" d="M676.2,677.1c10.1,0,15.9,5,17.9,7.6c0.9,1.2,1.2,2.1,1.2,3.4c0,3-2.3,5.3-5.3,5.3c-1.8,0-3.1-0.8-4.1-1.9
	c-1.4-1.5-4.3-4.3-9.8-4.3c-7.7,0-11.8,5.9-11.8,16.2c0,10.5,4.2,16.3,11.8,16.3c5,0,8.3-2.5,10.8-4.4c1.2-0.9,2.2-1.1,3.3-1.1
	c3,0,5.3,2.3,5.3,5.3c0,1.5-0.5,2.8-1.9,4.1c-2.5,2.3-8.5,6.2-17.5,6.2c-14.9,0-23.8-8.5-23.8-26.4
	C652.4,685.5,661.3,677.1,676.2,677.1z"/>
<path fill="#158FBA" d="M725.9,729.8c-14.8,0-24-8.4-24-26.3c0-18,9.2-26.4,24-26.4c14.8,0,24,8.4,24,26.4
	C749.9,721.3,740.6,729.8,725.9,729.8z M725.9,687.2c-7.9,0-12.1,5.5-12.1,16.3c0,10.7,4.2,16.2,12.1,16.2c7.9,0,12.1-5.5,12.1-16.2
	C737.9,692.6,733.7,687.2,725.9,687.2z"/>
<path fill="#158FBA" d="M835.2,696.1v27.4c0,3.3-2.6,5.7-5.9,5.7c-3.5,0-5.9-2.4-5.9-5.7v-25.2c0-6.2-2.5-10.5-9.6-10.5
	c-7.9,0-11,4.3-11,10.4v25.3c0,3.3-2.6,5.7-5.9,5.7c-3.5,0-5.9-2.4-5.9-5.7v-25.2c0-6.2-2.5-10.5-9.6-10.5c-8.2,0-11,4.8-11,11.3
	v24.4c0,3.3-2.5,5.7-5.9,5.7c-3.4,0-5.9-2.4-5.9-5.7v-39.9c0-3.3,2.6-5.9,5.9-5.9c3.3,0,5.9,2.6,5.9,5.9c2.1-3.2,6.7-6.6,14-6.6
	c9,0,13.5,2.9,16.2,7.1c3.5-4.7,8.2-7.1,15.7-7.1C831.2,677.1,835.2,686.6,835.2,696.1z"/>
<path fill="#158FBA" d="M361.6,290.9"/>
<path fill="#FFFFFF" d="M150,497.3c0-11.9,6-17.1,16.6-17.1c10.9,0,16.9,5.2,16.9,17.1c0,10.1-6,16.4-16.9,16.4
	C155.9,513.7,150,507.4,150,497.3z M180.6,635.6c0,7.8-6.2,14-14,14c-7.8,0-14-6.2-14-14v-94c0-7.8,6.2-14,14-14c7.8,0,14,6.2,14,14
	V635.6z"/>
<path fill="#FFFFFF" d="M209.1,588.9V484.3c0-8.3,6.7-15.1,15.1-15.1s15.1,6.7,15.1,15.1v104.6c0,15.8,6,34.3,35.3,34.3
	s35.3-18.4,35.3-34.3V484.3c0-8.3,6.7-15.1,15.1-15.1c8.3,0,15.1,6.7,15.1,15.1v104.6c0,29.6-13,60.7-65.4,60.7
	S209.1,618.5,209.1,588.9z"/>
<path fill="#FFFFFF" d="M415.5,614.9c-9.1,0-17.6-1.6-24.4-4.2c-1.6,1.3-2.3,3.6-2.3,5.5c0,4.4,3.4,8.8,15.3,8.8h24.1
	c26.7,0,48.3,9.3,48.3,35.6c0,26.5-24.9,39.2-57.9,39.2c-28.3,0-57.9-8-57.9-38.4c0-9.3,4.4-18.4,15.6-25.4
	c-6.7-4.2-12.2-10.6-12.2-20.8c0-6.5,2.9-12.7,8.8-17.6c-6-7.8-8.3-16.6-8.3-27c0-27.5,18.9-44.4,50.9-44.4c9.6,0,17.9,1.6,24.9,4.4
	c4.9-6.2,13.5-11.9,26-11.9c6.5,0,11.7,5.2,11.7,11.7s-5.2,11.7-11.7,11.7c-3.4,0-6,0.8-7.8,2.3c5.2,7,7.8,15.8,7.8,26.2
	C466.4,598,447.4,614.9,415.5,614.9z M428.2,647.8h-24.4c-9.9,2.1-15.1,7.8-15.1,13.5c0,9.9,10.4,14.5,30.1,14.5
	c15.6,0,29.6-4.7,29.6-15.3C448.4,652.3,439.9,647.8,428.2,647.8z M415.5,591.3c14.5,0,22.8-9.1,22.8-20.8
	c0-11.7-8.3-20.8-22.8-20.8c-14.5,0-22.8,9.1-22.8,20.8C392.6,582.2,401,591.3,415.5,591.3z"/>
<path fill="#FFFFFF" d="M547.1,526.1c43.9,0,51.9,33.7,51.9,51.6c0,9.6,0,20.8-15.8,20.8H519c0,18.7,13.2,27.3,30.4,27.3
	c11.4,0,19.5-3.9,25.7-8c2.9-1.8,4.9-2.9,8.3-2.9c6.7,0,12.2,5.5,12.2,12.2c0,4.2-2.1,7.5-4.4,9.6c-4.4,4.2-18.2,14.3-41.8,14.3
	c-36.1,0-58.4-19.5-58.4-62.8C491,548.4,511.8,526.1,547.1,526.1z M519.8,575.2h51.4c0-12.7-7.3-25.2-24.1-25.2
	C532,550,521.1,558.6,519.8,575.2z"/>
</svg>
