<?xml version="1.0" encoding="utf-8"?>
<!-- Generator: Adobe Illustrator 16.0.0, SVG Export Plug-In . SVG Version: 6.00 Build 0)  -->
<!DOCTYPE svg PUBLIC "-//W3C//DTD SVG 1.1//EN" "http://www.w3.org/Graphics/SVG/1.1/DTD/svg11.dtd">
<svg version="1.1" id="Capa_1" xmlns="http://www.w3.org/2000/svg" xmlns:xlink="http://www.w3.org/1999/xlink" x="0px" y="0px"
	 width="1920px" height="322.561px" viewBox="0 513.6 1920 322.561" enable-background="new 0 513.6 1920 322.561"
	 xml:space="preserve">
<path fill="#FFFFFF" d="M763.68,655.04c0,6.88-0.8,12.16-1.12,15.52h-128.8c0.8,44.96,29.601,63.521,62.88,63.521
	c23.84,0,38.24-4.16,50.721-9.44l5.76,23.841c-11.84,5.279-31.84,11.359-60.96,11.359c-56.48,0-90.08-37.12-90.08-92.32
	C602.08,612.32,763.68,621.44,763.68,655.04z"/>
<g>
	<path fill="#E8BB2D" d="M671.84,609.92h22.88c6.24,0,11.36-4.64,11.36-10.4V568c0-5.76-5.12-10.4-11.36-10.4h-22.88
		c-6.239,0-11.36,4.641-11.36,10.4v31.36C660.479,605.28,665.601,609.92,671.84,609.92L671.84,609.92z"/>
	<path fill="#E8BB2D" d="M763.04,641.28c0-29.12-18.72-54.24-45.6-66.08v24.16c0,11.52-10.24,20.96-22.881,20.96h-22.88
		c-12.64,0-22.88-9.44-22.88-20.96V575.2c-26.88,11.84-45.6,36.96-45.6,66.08c-6.24,0-11.36,4.64-11.36,10.399v10.4
		c0,5.76,5.12,10.4,11.36,10.4h159.68c6.24,0,11.36-4.641,11.36-10.4v-10.4C774.4,645.92,769.44,641.28,763.04,641.28L763.04,641.28
		z"/>
</g>
<path fill="#FFFFFF" d="M129.44,533.6c0.32,10.881-7.68,19.681-20.48,19.681c-11.36,0-19.36-8.8-19.36-19.681
	c0-11.359,8.32-20,20-20C121.76,513.6,129.44,522.4,129.44,533.6z M93.6,760V583.36h32.16V760H93.6z"/>
<path fill="#E8BB2D" d="M211.84,513.92v145.6c0,55.04,24.48,78.4,57.28,78.4c36.48,0,59.84-24.16,59.84-78.4v-145.6h32.16v143.36
	c0,75.52-39.84,106.56-93.12,106.56c-50.4,0-88.32-28.8-88.32-105.12V513.76h32.16V513.92z"/>
<path fill="#FFFFFF" d="M567.36,583.36c-0.801,12.8-1.44,27.04-1.44,48.479V734.4c0,40.479-8,65.279-25.12,80.64
	c-17.12,16-41.92,21.12-64.16,21.12c-21.119,0-44.479-5.12-58.72-14.561l8-24.479c11.68,7.36,29.92,13.92,51.84,13.92
	c32.8,0,56.96-17.12,56.96-61.76V729.6h-0.8c-9.92,16.48-28.8,29.601-56.16,29.601c-43.84,0-75.2-37.28-75.2-86.08
	c0-59.84,39.04-93.76,79.52-93.76c30.72,0,47.521,16,55.04,30.72h0.8l1.44-26.72H567.36z M534.24,652.96
	c0-5.44-0.32-10.24-1.761-14.56c-5.76-18.561-21.6-33.92-44.959-33.92c-30.721,0-52.48,25.92-52.48,66.72
	c0,34.72,17.439,63.52,52.16,63.52c19.68,0,37.6-12.479,44.479-32.8c1.761-5.439,2.561-11.68,2.561-17.12V652.96z"/>
<path fill="#FFFFFF" d="M840.8,532.64v50.721h45.92v24.479H840.8v95.2c0,21.92,6.24,34.24,24.16,34.24
	c8.32,0,14.561-1.12,18.561-2.24l1.439,24.16c-6.24,2.56-16,4.319-28.48,4.319c-15.039,0-27.039-4.8-34.72-13.439
	c-9.12-9.44-12.479-25.12-12.479-45.92v-96.32h-27.36V583.36h27.36v-42.4L840.8,532.64z"/>
<path fill="#FFFFFF" d="M958.72,533.6c0.32,10.881-7.68,19.681-20.479,19.681c-11.36,0-19.36-8.8-19.36-19.681
	c0-11.359,8.32-20,20-20C951.04,513.6,958.72,522.4,958.72,533.6z M922.88,760V583.36h32.16V760H922.88z"/>
<path fill="#FFFFFF" d="M1047.04,532.64v50.721h45.92v24.479h-45.92v95.2c0,21.92,6.24,34.24,24.16,34.24
	c8.32,0,14.56-1.12,18.56-2.24l1.44,24.16c-6.24,2.56-16,4.319-28.48,4.319c-15.04,0-27.04-4.8-34.72-13.439
	c-9.12-9.44-12.479-25.12-12.479-45.92v-96.32h-27.36V583.36h27.36v-42.4L1047.04,532.64z"/>
<path fill="#E8BB2D" d="M1120.479,740.96c0-13.44,9.12-23.04,21.921-23.04c12.8,0,21.6,9.44,21.6,23.04
	c0,13.12-8.32,23.04-21.92,23.04C1129.12,764,1120.479,754.08,1120.479,740.96z"/>
<path fill="#FFFFFF" d="M1329.6,753.44c-8.319,4.319-27.04,10.239-50.72,10.239c-53.28,0-88-36.16-88-90.08
	c0-54.399,37.28-93.76,94.88-93.76c19.04,0,35.84,4.8,44.48,9.12l-7.36,24.8c-7.68-4.319-19.68-8.319-37.28-8.319
	c-40.479,0-62.399,29.92-62.399,66.72c0,40.8,26.24,66.08,61.279,66.08c18.24,0,30.24-4.8,39.36-8.8L1329.6,753.44z"/>
<path fill="#FFFFFF" d="M1524.8,670.08c0,65.28-45.279,93.76-88,93.76c-47.84,0-84.64-35.04-84.64-90.88
	c0-59.2,38.72-93.76,87.52-93.76C1490.56,579.36,1524.8,616.16,1524.8,670.08z M1384.64,672c0,38.72,22.24,67.84,53.601,67.84
	c30.72,0,53.6-28.8,53.6-68.64c0-29.92-15.04-67.84-52.96-67.84C1401.12,603.36,1384.64,638.4,1384.64,672z"/>
<path fill="#E8BB2D" d="M1759.521,579.36c-16.801,0-28.48,4.319-39.041,12.479c-7.359,5.44-14.24,13.12-19.68,23.04h-0.8
	c-7.681-20.8-25.92-35.36-50.08-35.36c-29.28,0-45.601,15.681-55.521,32.48h-1.119l-1.44-28.48h-28.16
	c1.12,14.561,1.44,29.601,1.44,47.841V760h31.68V653.44c0-5.44,0.801-10.881,2.561-15.681c5.119-16,19.68-32.16,39.84-32.16
	c24.48,0,36.8,20.48,36.8,48.48v74.88l15.84-14.72l15.681,14.56v-78.08c0-5.76,1.119-11.68,2.56-16
	c5.44-15.68,19.681-29.12,37.92-29.12c25.92,0,38.399,20.48,38.399,54.4v100h31.36V656
	C1817.601,594.56,1782.88,579.36,1759.521,579.36z"/>
<path fill="#DDB333" d="M1697.601,744.16h-11.841c-0.479,0-0.8,0.32-0.8,0.8V760h13.28v-15.04
	C1698.399,744.48,1698.08,744.16,1697.601,744.16z"/>
</svg>
