<?xml version="1.0" encoding="utf-8"?>
<!-- Generator: Adobe Illustrator 18.0.0, SVG Export Plug-In . SVG Version: 6.00 Build 0)  -->
<!DOCTYPE svg PUBLIC "-//W3C//DTD SVG 1.1//EN" "http://www.w3.org/Graphics/SVG/1.1/DTD/svg11.dtd">
<svg version="1.1" id="Capa_1" xmlns="http://www.w3.org/2000/svg" xmlns:xlink="http://www.w3.org/1999/xlink" x="0px" y="0px"
	 viewBox="0 0 1200 450" enable-background="new 0 0 1200 450" xml:space="preserve">
<path fill="#158FBA" d="M477.3,234.4c0,4.3-0.5,7.6-0.7,9.7h-80.5c0.5,28.1,18.5,39.7,39.3,39.7c14.9,0,23.9-2.6,31.7-5.9l3.6,14.9
	c-7.4,3.3-19.9,7.1-38.1,7.1c-35.3,0-56.3-23.2-56.3-57.7C376.3,207.7,477.3,213.4,477.3,234.4z"/>
<g>
	<path fill="#E8BB2D" d="M419.9,206.2h14.3c3.9,0,7.1-2.9,7.1-6.5V180c0-3.6-3.2-6.5-7.1-6.5h-14.3c-3.9,0-7.1,2.9-7.1,6.5v19.6
		C412.8,203.3,416,206.2,419.9,206.2L419.9,206.2z M419.9,206.2"/>
	<path fill="#E8BB2D" d="M476.9,225.8c0-18.2-11.7-33.9-28.5-41.3v15.1c0,7.2-6.4,13.1-14.3,13.1h-14.3c-7.9,0-14.3-5.9-14.3-13.1
		v-15.1c-16.8,7.4-28.5,23.1-28.5,41.3c-3.9,0-7.1,2.9-7.1,6.5v6.5c0,3.6,3.2,6.5,7.1,6.5h99.8c3.9,0,7.1-2.9,7.1-6.5v-6.5
		C484,228.7,480.9,225.8,476.9,225.8L476.9,225.8z M476.9,225.8"/>
</g>
<path fill="#158FBA" d="M80.9,158.5c0.2,6.8-4.8,12.3-12.8,12.3c-7.1,0-12.1-5.5-12.1-12.3c0-7.1,5.2-12.5,12.5-12.5
	C76.1,146,80.9,151.5,80.9,158.5z M58.5,300V189.6h20.1V300H58.5z"/>
<path fill="#E8BB2D" d="M132.4,146.2v91c0,34.4,15.3,49,35.8,49c22.8,0,37.4-15.1,37.4-49v-91h20.1v89.6c0,47.2-24.9,66.6-58.2,66.6
	c-31.5,0-55.2-18-55.2-65.7v-90.6H132.4z"/>
<path fill="#158FBA" d="M354.6,189.6c-0.5,8-0.9,16.9-0.9,30.3V284c0,25.3-5,40.8-15.7,50.4c-10.7,10-26.2,13.2-40.1,13.2
	c-13.2,0-27.8-3.2-36.7-9.1l5-15.3c7.3,4.6,18.7,8.7,32.4,8.7c20.5,0,35.6-10.7,35.6-38.6V281h-0.5c-6.2,10.3-18,18.5-35.1,18.5
	c-27.4,0-47-23.3-47-53.8c0-37.4,24.4-58.6,49.7-58.6c19.2,0,29.7,10,34.4,19.2h0.5l0.9-16.7H354.6z M333.9,233.1
	c0-3.4-0.2-6.4-1.1-9.1c-3.6-11.6-13.5-21.2-28.1-21.2c-19.2,0-32.8,16.2-32.8,41.7c0,21.7,10.9,39.7,32.6,39.7
	c12.3,0,23.5-7.8,27.8-20.5c1.1-3.4,1.6-7.3,1.6-10.7V233.1z"/>
<path fill="#158FBA" d="M525.5,157.9v31.7h28.7v15.3h-28.7v59.5c0,13.7,3.9,21.4,15.1,21.4c5.2,0,9.1-0.7,11.6-1.4l0.9,15.1
	c-3.9,1.6-10,2.7-17.8,2.7c-9.4,0-16.9-3-21.7-8.4c-5.7-5.9-7.8-15.7-7.8-28.7v-60.2h-17.1v-15.3h17.1v-26.5L525.5,157.9z"/>
<path fill="#158FBA" d="M599.2,158.5c0.2,6.8-4.8,12.3-12.8,12.3c-7.1,0-12.1-5.5-12.1-12.3c0-7.1,5.2-12.5,12.5-12.5
	C594.4,146,599.2,151.5,599.2,158.5z M576.8,300V189.6h20.1V300H576.8z"/>
<path fill="#158FBA" d="M654.4,157.9v31.7h28.7v15.3h-28.7v59.5c0,13.7,3.9,21.4,15.1,21.4c5.2,0,9.1-0.7,11.6-1.4l0.9,15.1
	c-3.9,1.6-10,2.7-17.8,2.7c-9.4,0-16.9-3-21.7-8.4c-5.7-5.9-7.8-15.7-7.8-28.7v-60.2h-17.1v-15.3h17.1v-26.5L654.4,157.9z"/>
<path fill="#E8BB2D" d="M700.3,288.1c0-8.4,5.7-14.4,13.7-14.4c8,0,13.5,5.9,13.5,14.4c0,8.2-5.2,14.4-13.7,14.4
	C705.7,302.5,700.3,296.3,700.3,288.1z"/>
<path fill="#158FBA" d="M831,295.9c-5.2,2.7-16.9,6.4-31.7,6.4c-33.3,0-55-22.6-55-56.3c0-34,23.3-58.6,59.3-58.6
	c11.9,0,22.4,3,27.8,5.7l-4.6,15.5c-4.8-2.7-12.3-5.2-23.3-5.2c-25.3,0-39,18.7-39,41.7c0,25.5,16.4,41.3,38.3,41.3
	c11.4,0,18.9-3,24.6-5.5L831,295.9z"/>
<path fill="#158FBA" d="M953,243.8c0,40.8-28.3,58.6-55,58.6c-29.9,0-52.9-21.9-52.9-56.8c0-37,24.2-58.6,54.7-58.6
	C931.6,187.1,953,210.1,953,243.8z M865.4,245c0,24.2,13.9,42.4,33.5,42.4c19.2,0,33.5-18,33.5-42.9c0-18.7-9.4-42.4-33.1-42.4
	C875.7,202.1,865.4,224,865.4,245z"/>
<path fill="#E8BB2D" d="M1099.7,187.1c-10.5,0-17.8,2.7-24.4,7.8c-4.6,3.4-8.9,8.2-12.3,14.4h-0.5c-4.8-13-16.2-22.1-31.3-22.1
	c-18.3,0-28.5,9.8-34.7,20.3h-0.7l-0.9-17.8h-17.6c0.7,9.1,0.9,18.5,0.9,29.9V300H998v-66.6c0-3.4,0.5-6.8,1.6-9.8
	c3.2-10,12.3-20.1,24.9-20.1c15.3,0,23,12.8,23,30.3v46.8l9.9-9.2l9.8,9.1v-48.8c0-3.6,0.7-7.3,1.6-10c3.4-9.8,12.3-18.2,23.7-18.2
	c16.2,0,24,12.8,24,34V300h19.6v-65C1136,196.6,1114.3,187.1,1099.7,187.1z"/>
<path fill="#DDB333" d="M1061,290.1h-7.4c-0.3,0-0.5,0.2-0.5,0.5v9.4h8.3v-9.4C1061.5,290.3,1061.3,290.1,1061,290.1z"/>
</svg>
